# xmcd
#
# Track frame offsets:
#	150
#	21049
#	44816
#	75885
#	96828
#	119725
#	142019
#	162799
#	180652
#	224527
#	250706
#	268446
#
# Disc length: 3885 seconds
# Revision: 0
# Processed by: cddbd v1.5.2PL0 Copyright (c) Steve Scherf et al.
# Submitted via: dBpowerAMP V12.0
#
DISCID=ae0f2b0c
DTITLE=Kreslin and Leonardi - Never loose your soul
DYEAR=1900
DGENRE=BLUES
TTITLE0=Sweetest Taboo
TTITLE1=S tabo je izi
TTITLE2=Samba Yo samba
TTITLE3=Gonga
TTITLE4=My Baby
TTITLE5=Andul
TTITLE6=Sire
TTITLE7=Abel and Cain
TTITLE8=Gido
TTITLE9=Baby Please Don't Go
TTITLE10=Abel in Kajn
TTITLE11=Dekle moje
EXTD=
EXTT0=
EXTT1=
EXTT2=
EXTT3=
EXTT4=
EXTT5=
EXTT6=
EXTT7=
EXTT8=
EXTT9=
EXTT10=
EXTT11=
PLAYORDER=
